<svg width="16" height="23" viewBox="0 0 16 23" fill="none" xmlns="http://www.w3.org/2000/svg">
<mask id="path-1-outside-1_26_1516" maskUnits="userSpaceOnUse" x="0" y="0" width="16" height="23" fill="black">
<rect fill="white" width="16" height="23"/>
<path fill-rule="evenodd" clip-rule="evenodd" d="M13.5908 12.0654C14.4754 10.9087 15 9.46872 15 7.90787C15 4.09276 11.866 1 8 1C4.13401 1 1 4.09276 1 7.90787C1 9.46723 1.52357 10.9059 2.4067 12.0621C2.72161 12.4953 3.14821 12.9564 3.62061 13.4669C5.25584 15.2343 7.4399 17.5948 7.4399 21.4474C7.4399 21.7526 7.68732 22 7.99253 22H7.9999V14.8157H7.99998V22H8.00735C8.31255 22 8.55998 21.7526 8.55998 21.4474C8.55998 17.5948 10.744 15.2343 12.3793 13.4669C12.8505 12.9577 13.2761 12.4976 13.5908 12.0654Z"/>
</mask>
<path fill-rule="evenodd" clip-rule="evenodd" d="M13.5908 12.0654C14.4754 10.9087 15 9.46872 15 7.90787C15 4.09276 11.866 1 8 1C4.13401 1 1 4.09276 1 7.90787C1 9.46723 1.52357 10.9059 2.4067 12.0621C2.72161 12.4953 3.14821 12.9564 3.62061 13.4669C5.25584 15.2343 7.4399 17.5948 7.4399 21.4474C7.4399 21.7526 7.68732 22 7.99253 22H7.9999V14.8157H7.99998V22H8.00735C8.31255 22 8.55998 21.7526 8.55998 21.4474C8.55998 17.5948 10.744 15.2343 12.3793 13.4669C12.8505 12.9577 13.2761 12.4976 13.5908 12.0654Z" fill="#FF5C4C"/>
<path d="M13.5908 12.0654L12.7964 11.4579L12.7893 11.4673L12.7823 11.4768L13.5908 12.0654ZM2.4067 12.0621L3.21559 11.4741L3.2086 11.4645L3.20139 11.455L2.4067 12.0621ZM3.62061 13.4669L2.8866 14.1461L3.62061 13.4669ZM7.9999 22V23H8.9999V22H7.9999ZM7.9999 14.8157V13.8157H6.9999V14.8157H7.9999ZM7.99998 14.8157H8.99998V13.8157H7.99998V14.8157ZM7.99998 22H6.99998V23H7.99998V22ZM12.3793 13.4669L13.1133 14.1461L12.3793 13.4669ZM14.3851 12.6729C15.3978 11.3487 16 9.69694 16 7.90787H14C14 9.2405 13.553 10.4686 12.7964 11.4579L14.3851 12.6729ZM16 7.90787C16 3.52803 12.4057 0 8 0V2C11.3262 2 14 4.65749 14 7.90787H16ZM8 0C3.59425 0 0 3.52803 0 7.90787H2C2 4.65749 4.67376 2 8 2V0ZM0 7.90787C0 9.69523 0.601044 11.3456 1.61202 12.6691L3.20139 11.455C2.4461 10.4663 2 9.23924 2 7.90787H0ZM1.59781 12.65C1.95476 13.1411 2.42665 13.649 2.8866 14.1461L4.35462 12.7878C3.86976 12.2638 3.48846 11.8495 3.21559 11.4741L1.59781 12.65ZM2.8866 14.1461C4.52764 15.9197 6.4399 18.0218 6.4399 21.4474H8.4399C8.4399 17.1677 5.98405 14.5488 4.35462 12.7878L2.8866 14.1461ZM6.4399 21.4474C6.4399 22.3049 7.13504 23 7.99253 23V21C8.23961 21 8.4399 21.2003 8.4399 21.4474H6.4399ZM7.99253 23H7.9999V21H7.99253V23ZM8.9999 22V14.8157H6.9999V22H8.9999ZM7.9999 15.8157H7.99998V13.8157H7.9999V15.8157ZM6.99998 14.8157V22H8.99998V14.8157H6.99998ZM7.99998 23H8.00735V21H7.99998V23ZM8.00735 23C8.86484 23 9.55997 22.3049 9.55997 21.4474H7.55998C7.55998 21.2003 7.76027 21 8.00735 21V23ZM9.55997 21.4474C9.55997 18.0218 11.4722 15.9197 13.1133 14.1461L11.6453 12.7878C10.0158 14.5488 7.55998 17.1677 7.55998 21.4474H9.55997ZM13.1133 14.1461C13.5721 13.6502 14.0428 13.1436 14.3992 12.6539L12.7823 11.4768C12.5094 11.8517 12.1288 12.2652 11.6453 12.7878L13.1133 14.1461Z" fill="url(#paint0_linear_26_1516)" mask="url(#path-1-outside-1_26_1516)"/>
<circle opacity="0.4" cx="8" cy="8" r="4" fill="black"/>
<defs>
<linearGradient id="paint0_linear_26_1516" x1="8" y1="1" x2="8" y2="22" gradientUnits="userSpaceOnUse">
<stop stop-color="white"/>
<stop offset="1" stop-color="white" stop-opacity="0.35"/>
</linearGradient>
</defs>
</svg>
